<?xml version="1.0" standalone="no"?>
<!DOCTYPE svg PUBLIC "-//W3C//DTD SVG 20010904//EN"
 "http://www.w3.org/TR/2001/REC-SVG-20010904/DTD/svg10.dtd">
<svg version="1.0" xmlns="http://www.w3.org/2000/svg"
 width="2371.000000pt" height="1126.000000pt" viewBox="0 0 2371.000000 1126.000000"
 preserveAspectRatio="xMidYMid meet">
<metadata>
Created by potrace 1.16, written by Peter Selinger 2001-2019
</metadata>
<g transform="translate(0.000000,1126.000000) scale(0.100000,-0.100000)"
fill="#000000" stroke="none">
<path d="M10387 8100 c-92 -23 -160 -80 -199 -165 -32 -70 -33 -218 -2 -286
46 -99 137 -158 257 -167 137 -10 256 47 312 149 25 46 30 67 33 144 3 73 0
100 -17 145 -41 110 -139 176 -272 185 -41 2 -91 0 -112 -5z"/>
<path d="M660 7031 l0 -211 101 0 c56 0 119 -5 141 -12 54 -16 94 -65 107
-130 8 -38 11 -318 9 -934 l-3 -880 -30 -60 c-42 -81 -102 -113 -233 -121
l-92 -6 0 -209 0 -209 648 4 c554 3 662 6 752 21 722 119 1167 542 1276 1211
21 132 21 403 -1 550 -92 628 -467 1026 -1085 1149 -179 36 -238 39 -912 43
l-678 5 0 -211z m1330 -226 c432 -66 678 -295 764 -711 43 -207 40 -497 -8
-686 -92 -363 -325 -599 -678 -687 -129 -33 -216 -40 -448 -41 l-215 0 36 24
c47 32 87 92 110 166 18 59 19 103 19 1006 l0 944 163 0 c92 0 203 -6 257 -15z"/>
<path d="M9840 7030 l-1 -210 103 0 c57 0 120 -5 140 -10 51 -14 94 -67 108
-132 8 -38 10 -297 8 -934 l-3 -880 -30 -60 c-26 -51 -37 -63 -86 -87 -44 -22
-75 -29 -148 -34 l-91 -6 0 -208 0 -209 640 0 640 0 0 210 0 210 -266 0 -266
0 44 33 c64 49 106 138 118 252 5 50 10 487 10 973 l0 882 180 0 180 0 0 210
0 210 -639 0 -640 0 -1 -210z"/>
<path d="M6435 6941 l-230 -47 -3 -222 -2 -222 -160 0 -160 0 2 -187 3 -188
157 -3 157 -3 3 -642 c4 -620 5 -645 25 -718 47 -168 135 -283 265 -347 143
-70 264 -91 581 -99 l237 -6 0 191 0 192 -117 0 c-282 1 -380 36 -439 157
l-29 58 -3 608 -3 607 256 0 255 0 0 190 0 190 -255 0 -255 0 0 270 0 270 -27
-1 c-16 -1 -131 -22 -258 -48z"/>
<path d="M8315 6488 c-273 -16 -555 -126 -722 -282 l-56 -52 132 -192 133
-192 56 48 c186 159 345 218 560 210 143 -6 214 -30 277 -93 65 -65 87 -133
93 -287 l4 -128 -190 0 c-189 0 -347 -11 -452 -31 -416 -80 -630 -318 -607
-674 13 -183 62 -302 171 -411 112 -112 250 -168 447 -180 244 -16 469 68 614
228 l55 61 0 -126 0 -127 360 0 360 0 0 190 0 190 -119 0 -120 0 -4 628 c-3
609 -4 629 -25 711 -32 122 -84 213 -167 296 -165 166 -425 235 -800 213z
m475 -1451 l0 -154 -31 -44 c-107 -150 -227 -219 -383 -219 -129 0 -212 40
-263 128 -26 43 -28 56 -28 147 0 110 9 138 66 194 79 79 166 99 437 100 l202
1 0 -153z"/>
<path d="M18312 6488 c-236 -15 -424 -93 -567 -233 -158 -156 -235 -369 -222
-615 12 -214 80 -372 219 -512 l86 -88 -48 -35 c-63 -46 -155 -146 -180 -196
-96 -188 -46 -401 122 -514 l49 -33 -48 -35 c-63 -46 -154 -142 -193 -203 -17
-27 -42 -85 -57 -129 -34 -107 -36 -266 -4 -367 88 -275 443 -418 943 -379
431 33 770 168 980 390 130 138 187 264 196 437 17 340 -157 537 -548 620 -58
12 -170 18 -485 23 -446 7 -458 9 -503 66 -40 50 -24 130 40 208 l23 29 65
-12 c98 -18 329 -15 435 5 378 71 613 307 666 667 18 126 -2 320 -46 429 -5
13 8 19 72 33 65 14 258 35 326 36 16 0 17 16 17 205 l0 205 -79 0 c-158 0
-339 -51 -478 -134 l-75 -46 -44 31 c-167 115 -393 165 -662 147z m260 -443
c61 -22 142 -94 173 -154 51 -102 57 -241 14 -357 -32 -88 -114 -166 -204
-193 -89 -28 -210 -28 -298 -1 -156 48 -250 207 -233 392 16 171 111 289 263
328 56 14 230 5 285 -15z m263 -1865 c122 -24 192 -79 215 -168 14 -57 5 -113
-28 -176 -65 -120 -247 -208 -492 -236 -269 -31 -488 19 -565 128 -29 42 -30
48 -30 145 0 91 3 108 28 159 40 82 110 156 150 160 84 8 668 -2 722 -12z"/>
<path d="M4375 6474 c-237 -40 -485 -155 -608 -282 l-39 -40 132 -191 132
-191 56 48 c119 103 263 178 389 202 95 19 274 8 346 -20 79 -30 138 -88 167
-165 18 -47 24 -87 28 -186 l4 -126 -253 -6 c-344 -7 -490 -33 -664 -117 -234
-113 -348 -316 -332 -590 17 -290 188 -501 457 -564 294 -70 598 11 775 206
l55 61 0 -126 0 -127 360 0 360 0 0 190 0 190 -119 0 -120 0 -4 628 c-4 704
-3 691 -79 852 -91 191 -270 308 -542 355 -110 19 -388 19 -501 -1z m605
-1437 l0 -154 -31 -44 c-114 -160 -237 -226 -408 -217 -181 9 -270 100 -270
278 -1 86 18 136 70 188 80 81 165 100 437 101 l202 1 0 -153z"/>
<path d="M12721 6479 c-151 -29 -278 -97 -390 -208 -48 -47 -99 -102 -114
-121 l-26 -35 -1 168 0 167 -379 0 -378 0 -5 -182 c-3 -101 -4 -186 -1 -190 2
-5 48 -8 102 -8 146 0 194 -22 235 -110 20 -43 21 -61 24 -490 5 -593 -7 -681
-99 -764 -43 -39 -82 -52 -185 -62 l-71 -7 -5 -181 c-3 -99 -3 -184 -1 -188 2
-5 238 -8 524 -8 l519 0 0 190 0 190 -167 0 -167 0 40 34 c22 19 52 56 67 83
53 98 57 139 57 611 l0 433 46 49 c99 106 245 172 384 173 119 1 194 -42 239
-139 37 -77 43 -178 39 -610 -4 -346 -7 -417 -21 -460 -36 -109 -83 -149 -197
-166 l-70 -10 0 -189 0 -189 485 0 485 0 0 190 0 190 -164 0 -164 0 58 58 c48
49 62 70 79 127 20 65 21 89 22 524 l0 456 62 60 c107 102 232 155 368 156
124 0 194 -42 241 -145 l23 -51 0 -490 c0 -518 -1 -537 -48 -605 -31 -47 -75
-70 -157 -82 l-70 -10 0 -189 0 -189 520 0 520 0 0 190 0 190 -201 0 -202 0
47 41 c51 45 82 97 102 174 21 77 20 1000 -1 1119 -60 342 -267 516 -614 516
-244 -1 -405 -66 -572 -231 l-87 -87 -36 58 c-44 70 -140 162 -208 196 -88 45
-188 64 -322 63 -67 -1 -141 -5 -165 -10z"/>
<path d="M15880 6475 c-152 -26 -310 -80 -420 -143 -57 -33 -178 -123 -208
-154 l-22 -24 126 -185 c70 -101 130 -188 135 -193 4 -5 36 17 72 50 76 70
188 136 289 171 139 49 360 43 469 -13 106 -53 152 -150 164 -345 l7 -116
-263 -6 c-258 -6 -351 -16 -484 -51 -264 -69 -435 -221 -492 -439 -22 -83 -21
-260 1 -347 22 -88 76 -196 127 -254 123 -140 350 -219 583 -202 203 14 344
74 472 200 l84 83 0 -124 0 -123 360 0 360 0 0 190 0 189 -117 3 -118 3 -5
635 c-5 576 -8 641 -24 700 -81 286 -269 441 -597 495 -115 18 -391 19 -499 0z
m610 -1433 c0 -143 -1 -149 -27 -187 -106 -159 -235 -235 -399 -235 -127 0
-216 48 -267 144 -31 59 -31 203 0 261 41 76 98 117 204 144 61 17 109 20 282
20 l207 1 0 -148z"/>
<path d="M20570 6471 c-394 -87 -655 -360 -757 -791 -33 -140 -43 -415 -19
-565 72 -470 335 -770 759 -867 135 -31 386 -31 511 0 187 47 316 121 443 256
66 70 171 221 161 231 -9 9 -410 236 -413 233 -1 -2 -15 -23 -30 -48 -36 -59
-128 -153 -185 -190 -125 -79 -319 -81 -472 -4 -136 69 -238 251 -263 472 l-7
62 705 0 705 0 8 67 c4 38 4 129 0 203 -23 498 -231 808 -621 926 -80 24 -109
27 -265 30 -143 3 -190 0 -260 -15z m372 -450 c81 -31 150 -97 193 -184 33
-68 69 -202 63 -235 -3 -12 -62 -14 -438 -13 -239 1 -436 4 -439 6 -9 9 34
141 66 206 60 121 164 210 279 239 64 15 211 5 276 -19z"/>
</g>
</svg>
