<?xml version="1.0" standalone="no"?>
<!DOCTYPE svg PUBLIC "-//W3C//DTD SVG 20010904//EN"
 "http://www.w3.org/TR/2001/REC-SVG-20010904/DTD/svg10.dtd">
<svg version="1.0" xmlns="http://www.w3.org/2000/svg"
 width="1071.000000pt" height="1117.000000pt" viewBox="0 0 1071.000000 1117.000000"
 preserveAspectRatio="xMidYMid meet">
<metadata>
Created by potrace 1.16, written by Peter Selinger 2001-2019
</metadata>
<g transform="translate(0.000000,1117.000000) scale(0.100000,-0.100000)"
fill="#000000" stroke="none">
<path d="M5500 8951 l0 -219 -72 -7 c-981 -91 -1873 -619 -2427 -1435 -316
-465 -501 -981 -557 -1552 l-6 -68 -219 0 -219 0 0 -225 0 -225 219 0 219 0 7
-72 c53 -569 252 -1110 581 -1585 484 -697 1254 -1195 2089 -1353 94 -18 334
-50 372 -50 10 0 13 -50 13 -220 l0 -220 225 0 225 0 0 219 0 219 63 7 c521
54 973 201 1401 457 788 472 1354 1270 1536 2168 24 120 60 368 60 417 0 10
50 13 220 13 l220 0 0 225 0 225 -220 0 c-169 0 -220 3 -220 13 0 6 -5 53 -10
102 -34 305 -100 577 -207 850 -446 1134 -1465 1928 -2665 2077 l-178 22 0
218 0 218 -225 0 -225 0 0 -219z m0 -1106 l0 -435 225 0 225 0 0 436 0 437 73
-7 c623 -61 1242 -360 1707 -826 468 -468 757 -1071 826 -1717 l7 -63 -442 0
-441 0 0 -225 0 -225 441 0 441 0 -7 -67 c-95 -918 -654 -1750 -1480 -2206
-318 -175 -698 -294 -1062 -333 l-63 -7 0 442 0 441 -225 0 -225 0 0 -440 0
-440 -26 0 c-57 0 -307 44 -439 77 -154 39 -352 109 -502 178 -590 275 -1107
789 -1381 1375 -135 288 -229 622 -258 909 l-7 71 442 0 441 0 0 225 0 225
-441 0 -442 0 7 68 c17 177 69 414 130 597 272 810 907 1470 1706 1773 215 81
369 120 670 165 14 3 42 5 63 6 l37 1 0 -435z"/>
<path d="M5060 6760 l0 -220 225 0 225 0 0 220 0 220 -225 0 -225 0 0 -220z"/>
<path d="M5940 6760 l0 -220 220 0 220 0 0 220 0 220 -220 0 -220 0 0 -220z"/>
<path d="M4190 5880 l0 -220 220 0 220 0 0 220 0 220 -220 0 -220 0 0 -220z"/>
<path d="M6820 5880 l0 -220 220 0 220 0 0 220 0 220 -220 0 -220 0 0 -220z"/>
<path d="M5623 5663 l-113 -4 0 -214 0 -215 215 0 215 0 0 220 0 220 -102 -2
c-57 -1 -154 -4 -215 -5z"/>
<path d="M4190 5010 l0 -220 220 0 220 0 0 220 0 220 -220 0 -220 0 0 -220z"/>
<path d="M6820 5010 l0 -220 220 0 220 0 0 220 0 220 -220 0 -220 0 0 -220z"/>
<path d="M5060 4130 l0 -220 225 0 225 0 0 220 0 220 -225 0 -225 0 0 -220z"/>
<path d="M5940 4130 l0 -220 220 0 220 0 0 220 0 220 -220 0 -220 0 0 -220z"/>
<path d="M8125 8955 l0 -220 442 -3 443 -2 3 -438 2 -437 3 443 2 442 -445 0
-445 0 -3 218 -3 217 1 -220z"/>
<path d="M9010 2595 l0 -435 -445 0 -445 0 0 -220 0 -220 665 0 665 0 -2 658
-3 657 -2 -652 -3 -653 -655 0 -655 0 0 210 0 210 445 0 445 0 0 440 c0 242
-2 440 -5 440 -3 0 -5 -196 -5 -435z"/>
</g>
</svg>
